<svg width="59" height="48" viewBox="0 0 59 48" fill="none" xmlns="http://www.w3.org/2000/svg">
<rect width="58.0194" height="47.1364" transform="translate(0 0.0909119)" fill="#1A1A1A"/>
<path d="M29.0097 4.01895C15.6652 4.01895 4.83495 12.8177 4.83495 23.6591C4.83495 34.5005 15.6652 43.2993 29.0097 43.2993C42.3541 43.2993 53.1844 34.5005 53.1844 23.6591C53.1844 12.8177 42.3541 4.01895 29.0097 4.01895ZM17.0915 35.9931C18.1311 34.2255 24.4648 32.4972 29.0097 32.4972C33.5545 32.4972 39.9125 34.2255 40.9278 35.9931C37.6401 38.1143 33.5062 39.3712 29.0097 39.3712C24.5132 39.3712 20.3793 38.1143 17.0915 35.9931ZM44.3848 33.1453C40.9278 29.7279 32.5392 28.5691 29.0097 28.5691C25.4802 28.5691 17.0915 29.7279 13.6346 33.1453C11.1687 30.5135 9.66989 27.2336 9.66989 23.6591C9.66989 14.9978 18.3486 7.94698 29.0097 7.94698C39.6708 7.94698 48.3495 14.9978 48.3495 23.6591C48.3495 27.2336 46.8507 30.5135 44.3848 33.1453ZM29.0097 11.875C24.3198 11.875 20.5485 14.9389 20.5485 18.7491C20.5485 22.5593 24.3198 25.6231 29.0097 25.6231C33.6996 25.6231 37.4709 22.5593 37.4709 18.7491C37.4709 14.9389 33.6996 11.875 29.0097 11.875ZM29.0097 21.6951C27.0032 21.6951 25.3835 20.3792 25.3835 18.7491C25.3835 17.1189 27.0032 15.803 29.0097 15.803C31.0162 15.803 32.6359 17.1189 32.6359 18.7491C32.6359 20.3792 31.0162 21.6951 29.0097 21.6951Z" fill="#1D6FE9"/>
</svg>
