<svg width="63" height="45" viewBox="0 0 63 45" fill="none" xmlns="http://www.w3.org/2000/svg">
<path d="M40.8188 24.375C42.7875 24.375 44.52 23.6063 45.4125 22.4438L54.81 10.275C55.7812 9.0375 54.5213 7.5 52.5262 7.5H13.6763L11.2087 3.75H2.625V7.5H7.875L17.325 21.7313L13.7812 26.3062C11.865 28.8188 14.385 31.875 18.375 31.875H49.875V28.125H18.375L21.2625 24.375H40.8188ZM16.17 11.25H48.0637L40.8188 20.625H22.3912L16.17 11.25ZM18.375 33.75C15.4875 33.75 13.1513 35.4375 13.1513 37.5C13.1513 39.5625 15.4875 41.25 18.375 41.25C21.2625 41.25 23.625 39.5625 23.625 37.5C23.625 35.4375 21.2625 33.75 18.375 33.75ZM44.625 33.75C41.7375 33.75 39.4012 35.4375 39.4012 37.5C39.4012 39.5625 41.7375 41.25 44.625 41.25C47.5125 41.25 49.875 39.5625 49.875 37.5C49.875 35.4375 47.5125 33.75 44.625 33.75Z" fill="#1D6FE9"/>
</svg>
